# Blender v2.76 (sub 0) OBJ File: ''
# www.blender.org
mtllib short-sword.mtl
o Cube_Cube.002
v -0.350000 2.046317 0.350000
v -0.350000 2.046317 -0.350000
v 0.350000 2.046317 -0.350000
v 0.350000 2.046317 0.350000
v -0.350000 0.007140 -0.350000
v -0.350000 0.007140 0.350000
v 0.350000 0.007140 -0.350000
v 0.350000 0.007140 0.350000
v 0.350000 2.632147 0.350000
v 0.350000 2.632147 -0.350000
v -0.350000 2.632147 -0.350000
v -0.350000 2.632147 0.350000
v 0.902699 2.632147 0.350000
v 0.902699 2.632147 -0.350000
v -0.802844 2.632147 -0.350000
v -0.802844 2.632147 0.350000
v 0.902699 2.046317 0.350000
v 0.902699 2.046317 -0.350000
v -0.802844 2.046317 -0.350000
v -0.802844 2.046317 0.350000
vn 0.000000 -1.000000 0.000000
vn -1.000000 0.000000 0.000000
vn 0.000000 0.000000 -1.000000
vn 1.000000 0.000000 0.000000
vn 0.000000 -0.000000 1.000000
vn 0.000000 1.000000 0.000000
vn 0.000000 0.707100 -0.707100
vn 0.000000 0.707100 0.707100
vn 0.577400 -0.577400 0.577400
vn 0.577400 -0.577300 -0.577300
vn 0.000200 -0.707100 -0.707100
vn 0.577300 -0.577400 -0.577400
vn 0.000000 -0.707100 0.707100
vn 0.000000 -0.707100 -0.707100
vn -0.577400 -0.577400 -0.577400
vn -0.577500 -0.577300 0.577300
vn -0.000200 -0.707100 0.707100
vn -0.577300 -0.577400 0.577400
usemtl None.002
s off
f 1//1 2//1 3//1 4//1
s 1
f 1//2 2//2 5//2 6//2
f 2//3 3//3 7//3 5//3
f 3//4 4//4 8//4 7//4
f 4//5 1//5 6//5 8//5
f 6//1 5//1 7//1 8//1
f 9//6 10//6 11//6 12//6
f 9//5 12//5 1//5 4//5
f 10//7 9//8 13//8 14//7
f 11//3 10//3 3//3 2//3
f 12//8 11//7 15//7 16//8
f 14//4 13//4 17//9 18//10
f 3//11 10//7 14//7 18//12
f 4//13 3//14 18//10 17//9
f 9//8 4//13 17//9 13//8
f 16//2 15//2 19//15 20//16
f 11//7 2//14 19//15 15//7
f 2//14 1//13 20//16 19//15
f 1//17 12//8 16//8 20//18
